<svg xmlns="http://www.w3.org/2000/svg" viewBox="0 0 461.5 83.1"><defs/><style>.st0{fill:#c4960c}.st1{fill:#fff}</style><g><path d="M191.5 82.9V.2h2.8v82.7h-2.8zM143.4.5v22.3h3.8v38h-10.3v-38h3.4V.5h-33.6v22.3h5.4v44.1l15.1 15.8h29.6l15-15.8V22.8h5.5V.5h-33.9zm31.3 19.6h-5.5v45.4L155.3 80h-26.6l-13.9-14.5V20.1h-5.5v-17h28v17h-3.2v41.7l1.6 1.7h12.5l1.6-1.7V20.1h-3.2v-17h28l.1 17zM68.2 22.8h5.6v38h-5.6v21.9h35.7v-22h-5.4v-38h5.5V.5H68.2v22.3zm2.7-19.6h30.4v17h-5.5v43.3h5.5V80H71V63.4h5.5V20.1h-5.6V3.2zM0 22.8h5.7v37.9H0v22h35.7v-22h-5.3v-7.3h18.2V32.2H30.4v-9.4h10.3v5.1h24.7V.5H0v22.3zM2.6 3.2h59.9v22.1h-19v-5.1H27.7v14.7h18.2v15.9H27.7v12.7h5.4V80H2.6V63.4h5.7V20.1H2.6V3.2z" class="st0"/><path d="M146.3 20.1h3.5v41.7l-1.6 1.7h-12.5l-1.6-1.6V20.1h3.2v-17h-28v17h5.5v45.4L128.7 80h26.6l13.9-14.5V20.1h5.5V3.2h-28.4v16.9zm-45-16.9H70.9v17h5.6v43.3H71V80h30.3V63.4h-5.5V20.1h5.5V3.2zM2.6 20.1h5.7v43.3H2.6V80H33V63.4h-5.4V50.7h18.2V34.8H27.7V20.1h15.9v5.1h19v-22h-60v16.9zM219 .5l4.5-.1.1 4.6c-.1.3-.7.3-1 .1-.3-1.9-.8-2.8-2.1-3.1-.9-.2-1.7-.3-2.7-.3h-1.6c-1.3 0-1.3.1-1.3 1.9v5.7c0 .8 0 .9.8.9h1.9c2.8 0 3.3-.1 3.6-1.4l.3-1.1c.2-.2.8-.2 1 0l-.1 3.2.1 3.3c-.2.3-.8.3-1 0l-.3-1.2c-.3-1.3-.8-1.4-3.6-1.4h-1.9c-.7 0-.8.1-.8.9V17c0 3.4.3 3.4 1.8 3.6l1.3.2c.2.2.2.8-.1.9l-4.9-.1-4.3.1c-.3-.1-.3-.7-.1-.9l.7-.1c1.5-.2 1.8-.3 1.8-3.7V5.1c0-3.4-.3-3.5-1.8-3.7l-.4-.1c-.2-.2-.2-.8.1-.9l4 .1h6zm12.9 15.9c0 1.6.1 2.8.5 3.3s.9.7 3.5.7c3.6 0 4.1-.2 5.5-3.5.3-.2.8-.1 1 .2l-1.3 4.6-7.7-.1h-3.3l-4.6.1c-.3-.1-.4-.8-.1-.9l1-.2c1.5-.3 1.8-.3 1.8-3.6V5.1c0-3.3-.3-3.4-1.8-3.7l-.9-.1c-.2-.2-.2-.8.1-.9l4.5.1 4.2-.1c.3.1.3.8.1.9l-.7.1c-1.5.3-1.8.3-1.8 3.7v11.3zm33.9-5.3c0 6.3-4.8 11-11.3 11-7.2 0-11.4-5.1-11.4-10.8A11 11 0 01254.6-.1c7.3.1 11.2 5.4 11.2 11.2zm-18.4-.7c0 4.4 1.9 10.4 7.4 10.4 3.6 0 6.6-2.7 6.6-9.1 0-4.8-2.2-10.4-7.3-10.4-3.2 0-6.7 2.3-6.7 9.1zm21.9-5.1c0-3.1 0-3.5-1.5-3.6l-.8-.1c-.2-.2-.2-.7 0-.9 2-.2 4.7-.3 7.4-.3 2.5 0 4.7.3 6.1 1.1 1.6.9 2.8 2.4 2.8 4.7 0 2.9-2.3 4.4-3.8 5.1-.2.1-.1.4 0 .5 2.6 4.3 4.2 7 5.7 8.3.9.8 1.8 1 2.2 1 .2.1.2.5.1.6-.4.1-1 .2-2.1.2-3.1 0-4.7-1.2-6.7-4.2-.9-1.3-1.8-3.1-2.5-4.4-.6-1-.9-1.1-2-1.1-1 0-1 0-1 .7V17c0 3.4.3 3.5 1.8 3.7l.7.1c.2.2.2.8-.1.9H267c-.3-.1-.4-.7-.1-.9l.7-.1c1.5-.2 1.8-.3 1.8-3.7l-.1-11.7zm3.7 4.6c0 1 0 1.1 1.5 1.1 3.1 0 4.6-1.5 4.6-4.6 0-2.5-1.6-4.7-4.4-4.7-1.7 0-1.7.1-1.7 1.6v6.6zm21 7.1c0 3.4.3 3.5 1.8 3.7l.7.1c.2.2.2.8-.1.9l-4.2-.1-4.3.1c-.3-.1-.3-.7-.1-.9l.7-.1c1.5-.2 1.8-.3 1.8-3.7V5.1c0-3.4-.3-3.5-1.8-3.7l-.7-.1c-.2-.2-.2-.8.1-.9l4.3.1 4.2-.1c.3.1.3.7.1.9l-.7.1c-1.5.2-1.8.3-1.8 3.7V17zm7.7-11.7c0-3.1 0-3.5-1.5-3.7l-.7-.1c-.2-.2-.2-.7 0-.9 2.3-.2 4.9-.3 8-.3 3 0 5.2.3 7.5 1.1a9.9 9.9 0 016.6 9.6c0 3.6-1.8 7.2-5.7 9.2-2.3 1.1-5 1.5-7.9 1.5l-4.6-.2-4.1.1c-.3-.1-.3-.7-.1-.9l.7-.1c1.5-.2 1.8-.3 1.8-3.7V5.3zm3.7 10.5c0 3.1.2 4.8 3.6 4.8 5.7 0 8.3-4 8.3-9.4 0-6.3-3.7-9.4-9-9.4a8 8 0 00-2.6.4c-.2.2-.3.9-.3 2.4v11.2zm22.6-2c-.8 0-.8 0-1.1.9l-1.3 3.8c-.6 1.9-.5 2 .7 2.1l.9.2c.2.2.2.8-.1.9l-3.4-.1-3.2.1a.6.6 0 010-.9l1-.2c.9-.2 1.3-.4 1.8-1.5l1.6-3.9 4.4-11.4c.4-1 .7-1.8.6-2.3 1.1-.2 2.2-1.5 2.2-1.5.3 0 .4.1.5.3l1.4 4.4 4.6 13.4c.7 2.1.9 2.3 2.5 2.7l.5.1c.3.2.3.8 0 .9l-4.2-.1-3.9.1c-.3-.2-.3-.7-.1-.9l.7-.1c1.1-.2 1.3-.4.8-1.7l-1.5-4.4c-.3-.9-.4-.9-1.3-.9H328zm3.8-1.4c.9 0 1-.1.8-.8l-1.3-3.8c-.6-1.7-.7-2.3-.9-2.5h-.1l-1 2.5-1.3 3.7c-.3.9-.3.9.5.9h3.3zm-116.9 35c0 3.4.3 3.5 1.8 3.7l.7.1c.2.2.2.8-.1.9L213 52l-4.3.1c-.3-.1-.3-.7-.1-.9l.7-.1c1.5-.2 1.8-.3 1.8-3.7V35.5c0-3.4-.3-3.5-1.8-3.7l-.7-.1c-.2-.2-.2-.8.1-.9l4.3.1 4.3-.1c.3.1.3.7.1.9l-.7.1c-1.5.2-1.8.3-1.8 3.7v11.9zm25.2-.8l.1 5.6c-.3.3-.7.5-1.1.4a63 63 0 00-3.7-4.4l-7.5-8.5c-2.1-2.4-3.1-3.6-3.6-4l-.1 2V44c0 2.4 0 5.3.6 6.3.3.5.8.7 1.6.8l.7.1c.3.2.3.8-.1.9l-3.6-.1-3.3.1c-.3-.2-.3-.7-.1-.9l.7-.2c.6-.1 1.2-.2 1.4-.7.4-1 .4-3.8.4-6.3v-7.6c0-2.5 0-3-1.1-3.9a5 5 0 00-1.7-.6l-.5-.1c-.2-.2-.2-.8.1-.9l3.8.1 2.2-.1a39 39 0 005.1 6.6l3.2 3.5 4.6 5.1.1-.8V39c0-2.4 0-5.3-.6-6.3-.3-.5-.8-.7-1.6-.8l-.7-.1c-.3-.2-.3-.8.1-.9l3.7.1 3.4-.1c.3.2.3.7.1.9l-.7.2c-.6.1-1.1.2-1.4.7-.4 1-.4 3.8-.4 6.3l-.1 7.6zm12-13c0-1.3 0-1.4-.9-1.4h-1.8c-2.9 0-3.8.3-5 2.9-.2.2-.9.1-1-.2l1.2-4.8.4-.1.3.1c.2.8.6.8 2.8.8h13c1.6 0 2-.1 2.4-.8l.4-.1.4.2c-.3 1.3-.6 4.1-.5 5.1-.2.3-.7.3-1 .1-.4-2.5-1-3.1-4.5-3.1h-1.8c-.8 0-.9.1-.9 1.4v13.8c0 3.4.3 3.5 1.8 3.7l1.1.1c.2.2.2.8-.1.9l-4.7-.1-5 .1c-.3-.1-.3-.8-.1-.9l1.3-.2c1.5-.2 1.8-.2 1.8-3.6l.4-13.9zm15.9 1.9c0-3.4-.3-3.5-1.8-3.7l-.5-.1c-.2-.2-.2-.8.1-.9l4.1.1h6.1l4.3-.1.5 4.4c-.1.3-.8.3-1 .1-.5-1.9-1-2.6-2-2.9-.7-.2-1.7-.3-2.6-.3h-2.1c-1.4 0-1.4.1-1.4 1.9v5.4c0 .8 0 .9.8.9h1.5c2.8 0 3.3 0 3.5-1.4l.2-1.1c.3-.2.9-.2 1 0l-.1 3.2.1 3.4c-.2.2-.8.2-1 0l-.2-1.3c-.2-1.3-.8-1.4-3.5-1.4h-1.5c-.7 0-.8.1-.8.9v4.1c0 1.6.1 2.8.5 3.3.4.4.9.7 3.6.7 4.1 0 4.8-.9 5.9-3.5.3-.2.8-.1 1 .2-.2 1.3-.9 3.8-1.3 4.6l-7.9-.1h-3.6l-4.8.1c-.3-.1-.3-.7-.1-.9l1.2-.1c1.5-.2 1.8-.3 1.8-3.7V35.5zm17.9.2c0-3.1 0-3.5-1.5-3.6l-.8-.1c-.2-.2-.2-.7 0-.9 2-.2 4.7-.3 7.4-.3 2.5 0 4.7.3 6.1 1.1 1.6.9 2.8 2.4 2.8 4.7 0 2.9-2.3 4.4-3.8 5-.2.1-.1.3 0 .5 2.6 4.3 4.2 7 5.7 8.3.9.8 1.8 1 2.2 1 .2.1.2.5.1.6-.4.1-1 .2-2.1.2-3.1 0-4.7-1.2-6.7-4.2-.9-1.3-1.8-3.1-2.5-4.3-.6-1-.9-1.1-2-1.1-1 0-1 0-1 .7v4.1c0 3.4.3 3.5 1.8 3.7l.7.1c.2.2.2.8-.1.9h-8.6c-.3-.1-.4-.7-.1-.9l.7-.1c1.5-.2 1.8-.3 1.8-3.7l-.1-11.7zm3.7 4.6c0 1 0 1.1 1.5 1.1 3.1 0 4.6-1.5 4.6-4.6 0-2.5-1.6-4.7-4.4-4.7-1.7 0-1.7.1-1.7 1.6v6.6zm34.9 6.3l.1 5.6c-.3.3-.7.5-1.1.4a63 63 0 00-3.7-4.4l-7.5-8.5c-2-2.4-3.1-3.6-3.6-4l-.1 2V44c0 2.4 0 5.3.6 6.3.3.5.8.7 1.6.8l.7.1c.3.2.3.8-.1.9l-3.6-.1-3.3.1c-.3-.2-.3-.7-.1-.9l.7-.2c.6-.1 1.2-.2 1.4-.7.4-1 .4-3.8.4-6.3v-7.6c0-2.5 0-3-1.1-3.9a5 5 0 00-1.7-.6l-.5-.1c-.2-.2-.2-.8.1-.9l3.8.1 2.2-.1a39 39 0 005.1 6.6L318 41l4.6 5.1.1-.8V39c0-2.4 0-5.3-.6-6.3-.3-.5-.8-.7-1.6-.8l-.7-.1c-.3-.2-.3-.8.1-.9l3.7.1 3.4-.1c.3.2.3.7.1.9l-.7.2c-.6.1-1.1.2-1.4.7-.5 1-.5 3.8-.5 6.3v7.6zm9.5-2.4c-.8 0-.8 0-1.1.9l-1.3 3.8c-.6 1.9-.5 1.9.7 2.1l.9.2c.2.2.2.8-.1.9l-3.4-.1-3.2.1a.6.6 0 010-.9l1-.2c.9-.2 1.3-.4 1.8-1.5l1.6-3.9 4.4-11.4c.4-1 .7-1.8.6-2.3 1.1-.2 2.2-1.5 2.2-1.5.3 0 .4.1.5.3l1.4 4.4 4.6 13.4c.7 2.1.9 2.3 2.5 2.7l.5.1c.3.2.3.8 0 .9l-4.2-.1-3.9.1c-.3-.2-.3-.7-.1-.9l.7-.1c1.1-.2 1.3-.3.8-1.7l-1.5-4.3c-.3-.9-.4-.9-1.3-.9H334v-.1zm3.9-1.4c.9 0 1-.1.8-.8l-1.3-3.8c-.6-1.7-.7-2.3-.9-2.5h-.1l-1 2.5-1.3 3.7c-.3.9-.3.9.5.9h3.3zm15.4-9.2c0-1.3 0-1.4-.9-1.4h-1.8c-2.9 0-3.8.3-5 2.9-.2.2-.9.1-1-.2l1.2-4.8.4-.1.3.1c.2.8.6.8 2.8.8h13c1.6 0 2-.1 2.4-.8l.4-.1.4.2c-.3 1.3-.6 4.1-.5 5.1-.2.3-.7.3-1 .1-.4-2.5-1-3.1-4.5-3.1h-1.8c-.8 0-.9.1-.9 1.4v13.8c0 3.4.3 3.5 1.8 3.7l1.1.1c.2.2.2.8-.1.9l-4.7-.1-5 .1c-.3-.1-.3-.8-.1-.9l1.3-.2c1.5-.2 1.8-.2 1.8-3.6l.4-13.9zm19.5 13.8c0 3.4.3 3.5 1.8 3.7l.7.1c.2.2.2.8-.1.9l-4.3-.1-4.3.1c-.3-.1-.3-.7-.1-.9l.7-.1c1.5-.2 1.8-.3 1.8-3.7V35.5c0-3.4-.3-3.5-1.8-3.7l-.7-.1c-.2-.2-.2-.8.1-.9l4.3.1 4.3-.1c.3.1.3.7.1.9l-.7.1c-1.5.2-1.8.3-1.8 3.7v11.9zm27.2-5.9c0 6.3-4.8 11-11.3 11-7.2 0-11.4-5.1-11.4-10.8a11 11 0 0111.5-11.4c7.4.1 11.2 5.4 11.2 11.2zm-18.3-.7c0 4.4 1.9 10.4 7.4 10.4 3.6 0 6.6-2.7 6.6-9.1 0-4.8-2.2-10.4-7.3-10.4-3.3 0-6.7 2.3-6.7 9.1zm39.1 5.8l.1 5.6c-.3.3-.7.5-1.1.4a63 63 0 00-3.7-4.4l-7.5-8.5c-2-2.4-3.1-3.6-3.6-4l-.1 2V44c0 2.4 0 5.3.6 6.3.3.5.8.7 1.6.8l.7.1c.3.2.3.8-.1.9l-3.6-.1-3.3.1c-.3-.2-.3-.7-.1-.9l.7-.2c.6-.1 1.2-.2 1.4-.7.4-1 .4-3.8.4-6.3v-7.6c0-2.5 0-3-1.1-3.9a5 5 0 00-1.7-.6l-.5-.1c-.2-.2-.2-.8.1-.9l3.8.1 2.2-.1a39 39 0 005.1 6.6l3.2 3.5 4.6 5.1.1-.8V39c0-2.4 0-5.3-.6-6.3-.3-.5-.8-.7-1.6-.8l-.7-.1c-.3-.2-.3-.8.1-.9l3.7.1 3.4-.1c.3.2.3.7.1.9l-.7.2c-.6.1-1.1.2-1.4.7-.5 1-.5 3.8-.5 6.3v7.6zm9.2-2.4c-.8 0-.8 0-1.1.9l-1.3 3.8c-.6 1.9-.5 1.9.7 2.1l.9.2c.2.2.2.8-.1.9l-3.4-.1-3.2.1a.6.6 0 010-.9l1-.2c.9-.2 1.3-.4 1.8-1.5l1.6-3.9 4.4-11.4c.4-1 .7-1.8.6-2.3 1.1-.2 2.2-1.5 2.2-1.5.3 0 .4.1.5.3l1.4 4.4 4.6 13.4c.7 2.1.9 2.3 2.5 2.7l.5.1c.3.2.3.8 0 .9l-4.2-.1-3.9.1c-.3-.2-.3-.7-.1-.9l.7-.1c1.1-.2 1.3-.3.8-1.7l-1.5-4.3c-.3-.9-.4-.9-1.3-.9H430v-.1zm3.9-1.4c.9 0 1-.1.8-.8l-1.3-3.8c-.6-1.7-.7-2.3-.9-2.5h-.1l-1 2.5-1.3 3.7c-.3.9-.3.9.5.9h3.3zm17.1 4c0 1.6.1 2.8.5 3.3s.9.7 3.5.7c3.5 0 4.1-.2 5.5-3.5.3-.2.8-.1 1 .2l-1.3 4.6-7.7-.1h-3.3l-4.6.1c-.3-.1-.4-.8-.1-.9l1-.2c1.5-.3 1.8-.3 1.8-3.6V35.5c0-3.3-.3-3.4-1.8-3.7l-.9-.1c-.2-.2-.2-.8.1-.9l4.5.1 4.3-.1c.3.1.3.8.1.9l-.7.1c-1.5.3-1.8.3-1.8 3.7l-.1 11.3zM211 65.9c0-3.4-.3-3.5-1.8-3.7l-.5-.1c-.2-.2-.2-.8.1-.9l4.1.1 4.3-.1c.3.1.3.7.1.9l-.7.1c-1.5.2-1.8.3-1.8 3.7v7.3c0 4.4 1.3 8.1 5.8 8.1 4.2 0 5.9-3.2 5.9-8v-4c0-2.4 0-5.4-.6-6.3-.3-.5-.8-.7-1.6-.8l-.6-.1c-.3-.2-.3-.8.1-.9l3.6.1 3.4-.1c.3.2.3.7.1.9l-.7.2c-.6.1-1.2.3-1.4.8-.4 1-.4 3.8-.4 6.3v3.8c0 2.9-.4 5.6-2.1 7.4S222.2 83 220 83c-3 0-5.1-.6-6.6-2.1-1.4-1.4-2.1-3.6-2.1-6.8v-8.2zM252.6 77l.1 5.6c-.3.3-.7.5-1.1.4a63 63 0 00-3.7-4.4l-7.5-8.5c-2.1-2.4-3.1-3.6-3.6-4l-.1 2.1v6.2c0 2.4 0 5.3.6 6.3.3.5.8.7 1.6.8l.7.1c.3.2.3.8-.1.9l-3.6-.1-3.3.1c-.3-.2-.3-.7-.1-.9l.7-.2c.6-.1 1.2-.2 1.4-.7.4-1 .4-3.8.4-6.3v-7.6c0-2.5 0-3-1.1-3.9a5 5 0 00-1.7-.6l-.5-.1c-.2-.2-.2-.8.1-.9l3.8.1 2.2-.1a39 39 0 005.1 6.6l3.2 3.5 4.6 5.1.1-.8v-6.2c0-2.4 0-5.3-.6-6.3-.3-.5-.8-.7-1.6-.8l-.7-.1c-.3-.2-.3-.8.1-.9l3.7.1 3.4-.1c.3.2.3.7.1.9l-.7.2c-.6.1-1.1.2-1.4.7-.5 1-.5 3.8-.5 6.3V77zm11 .8c0 3.4.3 3.5 1.8 3.7l.7.1c.2.2.2.8-.1.9l-4.3-.1-4.3.1c-.3-.1-.3-.7-.1-.9l.7-.1c1.5-.2 1.8-.3 1.8-3.7V65.9c0-3.4-.3-3.5-1.8-3.7l-.7-.1c-.2-.2-.2-.8.1-.9l4.3.1 4.3-.1c.3.1.3.7.1.9l-.7.1c-1.5.2-1.8.3-1.8 3.7v11.9zm18.2-3.3a99.5 99.5 0 00-3.3 8.3l-.5.2a1 1 0 01-.6-.2l-1.5-4.2-5.6-13.5c-.9-2.1-1.2-2.6-2.5-2.8l-.8-.2c-.2-.2-.2-.8.1-.9l3.9.1 4.2-.1c.3.2.3.7 0 .9l-.8.2c-.7.2-1 .3-1 .6s.3 1 1.6 4.3l2.3 5.7 1.8 4.1c1.7-4 3.6-8.4 5.3-12.8.5-1.3.4-1.5-.5-1.8l-.9-.2c-.2-.3-.2-.8.1-.9l3.4.1 3.1-.1c.3.2.2.7.1.9l-.8.2c-.7.2-1.4.4-2 1.3-.9 1.5-1.8 3.7-3.3 6.9l-1.8 3.9zm10.9-8.6c0-3.4-.3-3.5-1.8-3.7l-.5-.1c-.2-.2-.2-.8.1-.9l4.1.1h6.1l4.3-.1.5 4.4c-.1.3-.8.3-1 .1-.5-1.9-1-2.6-2-2.9-.7-.2-1.7-.3-2.6-.3h-2.1c-1.4 0-1.4.1-1.4 1.9v5.4c0 .8 0 .9.8.9h1.5c2.8 0 3.3 0 3.5-1.4l.2-1.1c.3-.2.9-.2 1 0l-.1 3.2.1 3.4c-.2.2-.8.2-1 0l-.2-1.3c-.2-1.3-.8-1.4-3.5-1.4h-1.5c-.7 0-.8.1-.8.9v4.1c0 1.6.1 2.8.5 3.3.4.4.9.7 3.6.7 4.1 0 4.8-.9 5.9-3.5.3-.2.8-.1 1 .2-.2 1.3-.9 3.8-1.3 4.6l-7.9-.1h-3.6l-4.8.1c-.3-.1-.3-.7-.1-.9l1.2-.1c1.5-.2 1.8-.3 1.8-3.7V65.9zm19.2.2c0-3.1 0-3.5-1.5-3.6l-.8-.1c-.2-.2-.2-.7 0-.9 2-.2 4.7-.3 7.4-.3 2.5 0 4.7.3 6.1 1.1 1.6.9 2.8 2.4 2.8 4.7 0 2.9-2.3 4.4-3.8 5.1-.2.1-.1.3 0 .5 2.6 4.3 4.2 7 5.7 8.3.9.8 1.8 1 2.2 1 .2.1.2.5.1.6-.4.1-1 .2-2.1.2-3.1 0-4.7-1.2-6.7-4.2-.9-1.3-1.8-3.1-2.5-4.3-.6-1-.9-1.1-2-1.1-1 0-1 0-1 .7v4.1c0 3.4.3 3.5 1.8 3.7l.7.1c.2.2.2.8-.1.9h-8.6c-.3-.1-.4-.7-.1-.9l.7-.1c1.5-.2 1.8-.3 1.8-3.7l-.1-11.8zm3.7 4.6c0 1 0 1.1 1.5 1.1 3.1 0 4.6-1.5 4.6-4.6 0-2.5-1.6-4.7-4.4-4.7-1.7 0-1.7.1-1.7 1.6v6.6zm15.6 10.9c-.6-.7-1-2.9-1-4.9.2-.3.7-.3 1-.1.6 1.6 2.3 5.1 5.4 5.1 2.4 0 3.8-1.5 3.8-3.4 0-1.8-.9-3.3-3.3-4.6l-1.4-.8c-2.4-1.3-4.5-3.3-4.5-6.2 0-3.2 2.4-5.9 7-5.9 1.7 0 2.9.4 4.4.7.4.7.7 2.8.7 4.3-.2.3-.7.3-1 .1-.5-1.7-1.6-3.8-4.3-3.8-2.6 0-3.6 1.7-3.6 3.4 0 1.3.9 2.8 3 3.9l2 1.1c2.1 1.1 4.4 3.1 4.4 6.3 0 3.7-2.8 6.2-7.4 6.2-2.9 0-4.5-1-5.2-1.4zm21.5-3.8c0 3.4.3 3.5 1.8 3.7l.7.1c.2.2.2.8-.1.9l-4.3-.1-4.3.1c-.3-.1-.3-.7-.1-.9l.7-.1c1.5-.2 1.8-.3 1.8-3.7V65.9c0-3.4-.3-3.5-1.8-3.7l-.7-.1c-.2-.2-.2-.8.1-.9l4.3.1 4.3-.1c.3.1.3.7.1.9l-.7.1c-1.5.2-1.8.3-1.8 3.7v11.9zm13-13.8c0-1.3 0-1.4-.9-1.4H363c-2.9 0-3.8.3-5 2.9-.2.2-.9.1-1-.2l1.2-4.8.4-.1.3.1c.2.8.6.8 2.8.8h13c1.6 0 2-.1 2.4-.8l.4-.1.4.2c-.3 1.3-.6 4.1-.5 5.1-.2.3-.7.3-1 .1-.4-2.5-1-3.1-4.5-3.1h-1.8c-.8 0-.9.1-.9 1.4v13.8c0 3.4.3 3.5 1.8 3.7l1.1.1c.2.2.2.8-.1.9l-4.7-.1-5 .1c-.3-.1-.3-.8-.1-.9l1.3-.2c1.5-.2 1.8-.2 1.8-3.6l.4-13.9zm20.8 12c0-1.8-.2-2.3-1-4l-3.8-7.6c-.7-1.4-1-1.7-2.4-2.1l-.8-.2c-.2-.2-.1-.8.1-.9l4 .1 4.1-.1c.3.1.3.7.1.9l-1 .2c-.5.1-.7.2-.7.4s.1.6.6 1.7c1.2 2.8 2.4 5.3 3.7 7.7a241 241 0 003.7-7.1c.5-1.1.9-1.8.9-2.1 0-.3-.3-.4-.7-.5l-1-.2c-.2-.2-.2-.8.1-.9l3.4.1 3-.1c.3.2.3.7.1.9l-.9.2c-1.4.3-1.8.9-3.5 3.7l-3 5.4a6.8 6.8 0 00-1.2 4.5v1.9c0 3.4.3 3.5 1.9 3.7l1.2.1c.2.2.2.8-.1.9l-4.8-.1-4.6.1c-.3-.1-.3-.7-.1-.9l1-.1c1.5-.2 1.8-.3 1.8-3.7l-.1-1.9z" class="st1"/></g></svg>