<svg xmlns="http://www.w3.org/2000/svg" viewBox="0 0 177.3 82.2"><defs/><path fill="#b6862c" d="M143.3 0v22.3h3.8v38h-10.3v-38h3.4V0h-33.6v22.3h5.4v44.1l15.1 15.8h29.6l15-15.8V22.3h5.5V0h-33.9zm31.4 19.6h-5.5V65l-13.9 14.5h-26.6L114.8 65V19.6h-5.5v-17h28v17h-3.2v41.7l1.6 1.7h12.5l1.6-1.7V19.6h-3.2v-17h28l.1 17zM68.2 22.3h5.6v38h-5.6v21.9h35.7v-22h-5.4v-38h5.5V0H68.2v22.3zm2.7-19.7h30.4v17h-5.5v43.3h5.5v16.6H71V62.9h5.5V19.6h-5.6v-17zM0 22.3h5.7v37.9H0v22h35.7v-22h-5.3V53h18.3V31.6H30.4v-9.3h10.3v5.1h24.6V0H0v22.3zM2.7 2.7h60v22.1h-19v-5.1h-16v14.7h18.2v15.9H27.7V63h5.4v16.6H2.7V62.9h5.7V19.6H2.7V2.7z"/><path fill="#081e3f" d="M146.3 19.6h3.5v41.7l-1.6 1.7h-12.5l-1.6-1.7V19.6h3.2v-17h-28v17h5.5V65l13.8 14.5h26.6l14-14.5V19.6h5.5v-17h-28.4v17zm-45-16.9H70.9v17h5.6V63H71v16.6h30.3V62.9h-5.5V19.6h5.5V2.7zM2.7 19.6h5.7v43.3H2.7v16.6h30.4V62.9h-5.4V50.2h18.2V34.3H27.7V19.6h15.9v5.1h19v-22H2.7v16.9z"/></svg>